<?xml version="1.0" standalone="no"?>
<!DOCTYPE svg PUBLIC "-//W3C//DTD SVG 20010904//EN"
 "http://www.w3.org/TR/2001/REC-SVG-20010904/DTD/svg10.dtd">
<svg version="1.0" xmlns="http://www.w3.org/2000/svg"
 width="512.000000pt" height="512.000000pt" viewBox="0 0 512.000000 512.000000"
 preserveAspectRatio="xMidYMid meet">

<g transform="translate(0.000000,512.000000) scale(0.100000,-0.100000)"
fill="#000000" stroke="none">
<path d="M2261 5104 c-103 -27 -259 -113 -473 -258 -83 -57 -135 -171 -125
-277 5 -53 3 -58 -17 -63 -12 -3 -42 -19 -67 -36 l-44 -30 -480 0 c-536 0
-559 -2 -651 -65 -54 -37 -78 -65 -115 -135 l-24 -45 0 -1720 0 -1720 24 -45
c37 -70 69 -106 121 -140 79 -51 132 -60 347 -60 177 0 192 -1 197 -18 11 -35
57 -67 194 -137 l136 -70 19 -58 c24 -75 98 -156 175 -194 l57 -28 1025 0
1025 0 57 28 c77 38 151 119 175 194 l19 58 136 70 c137 70 183 102 194 137 5
17 20 18 198 18 213 0 265 9 348 61 50 33 82 69 119 139 l24 45 0 1720 0 1720
-24 45 c-37 70 -61 98 -115 135 -92 63 -115 65 -651 65 l-480 1 -55 34 c-30
19 -59 35 -66 35 -9 0 -11 17 -7 58 10 107 -42 221 -125 278 -403 272 -587
330 -736 229 l-36 -24 -36 24 c-69 47 -160 57 -263 29z m-856 -856 c-3 -13 -9
-59 -12 -103 -5 -67 -10 -87 -36 -124 -88 -128 -100 -296 -31 -438 l25 -52
-26 -50 c-14 -28 -30 -73 -36 -100 l-10 -49 -207 -4 c-228 -5 -261 -12 -336
-70 -58 -44 -85 -81 -113 -148 l-23 -59 2 -933 3 -933 23 -46 c52 -105 158
-183 262 -196 l50 -6 0 -129 0 -130 -198 4 c-192 3 -200 4 -235 28 -20 13 -45
41 -56 61 -21 37 -21 41 -21 1703 0 1416 2 1671 14 1694 19 37 65 77 101 90
19 7 185 11 449 11 l418 1 -7 -22z m3166 11 c40 -14 85 -53 105 -91 12 -23 14
-278 14 -1694 0 -1662 0 -1666 -21 -1703 -11 -20 -36 -48 -56 -61 -35 -24 -43
-25 -235 -28 l-198 -4 0 130 0 129 50 6 c104 13 210 91 262 196 l23 46 3 932
c2 919 2 932 -18 986 -26 69 -68 122 -128 164 -74 51 -140 63 -348 63 l-182 0
-11 50 c-6 28 -22 73 -36 101 l-26 50 25 52 c69 142 56 310 -33 441 -23 34
-29 55 -34 121 -3 44 -9 90 -12 103 l-7 22 414 0 c283 0 426 -4 449 -11z
m-3236 -1135 c22 -41 93 -107 135 -126 27 -12 28 -15 32 -102 3 -71 10 -104
30 -147 46 -101 141 -184 241 -211 39 -10 55 -22 87 -63 160 -207 466 -227
653 -43 l47 47 48 -47 c188 -186 494 -164 655 48 27 36 44 48 83 58 101 27
196 110 242 211 20 43 27 76 30 147 4 87 5 90 32 102 42 19 113 85 135 126
l20 36 196 0 c210 0 245 -6 293 -49 58 -53 56 -13 56 -981 0 -877 0 -891 -20
-931 -12 -22 -35 -49 -53 -59 -42 -26 -100 -37 -105 -21 -14 42 -75 88 -204
152 -100 50 -138 74 -138 87 0 32 -50 120 -93 163 -23 23 -67 54 -97 68 l-55
26 -467 3 -468 3 0 92 0 93 52 34 c163 108 142 360 -37 441 -54 25 -156 25
-210 0 -179 -81 -200 -333 -37 -441 l52 -34 0 -93 0 -93 -452 0 c-505 -1 -510
-1 -601 -71 -53 -40 -114 -127 -123 -175 -6 -33 -14 -38 -144 -105 -128 -64
-188 -109 -202 -150 -5 -16 -63 -5 -105 21 -18 10 -41 37 -53 59 -20 40 -20
54 -20 931 0 968 -2 928 56 981 46 42 77 47 289 48 l200 1 20 -36z m2222
-1685 c40 -15 73 -48 94 -94 17 -37 19 -75 19 -533 0 -421 -2 -498 -15 -529
-21 -50 -42 -72 -90 -94 -38 -18 -90 -19 -1003 -19 -844 0 -967 2 -999 15 -50
21 -72 42 -94 90 -17 37 -19 76 -19 530 0 291 4 504 10 524 12 41 54 88 95
107 24 11 212 13 1002 14 665 0 981 -3 1000 -11z m-2277 -629 l0 -330 -85 42
-85 42 0 246 0 246 83 41 c45 23 83 42 85 42 1 1 2 -147 2 -329z m2730 0 l0
-246 -85 -42 -85 -42 0 330 0 330 85 -42 85 -42 0 -246z"/>
<path d="M1827 1266 c-211 -79 -274 -339 -120 -493 62 -62 124 -87 213 -87 89
0 151 25 213 87 58 58 82 117 82 207 0 122 -57 215 -168 272 -53 27 -166 34
-220 14z m179 -200 c28 -28 34 -42 34 -75 0 -78 -49 -131 -120 -131 -71 0
-120 53 -120 131 0 33 6 47 34 75 30 30 40 34 86 34 46 0 56 -4 86 -34z"/>
<path d="M3107 1266 c-211 -79 -274 -339 -120 -493 62 -62 124 -87 213 -87 89
0 151 25 213 87 58 58 82 117 82 207 0 122 -57 215 -168 272 -53 27 -166 34
-220 14z m179 -200 c28 -28 34 -42 34 -75 0 -78 -49 -131 -120 -131 -71 0
-120 53 -120 131 0 33 6 47 34 75 30 30 40 34 86 34 46 0 56 -4 86 -34z"/>
<path d="M2155 648 c-20 -24 -25 -38 -21 -60 18 -89 178 -205 324 -237 177
-37 382 34 492 171 44 54 48 87 15 126 -21 25 -34 32 -64 32 -31 0 -45 -8 -90
-54 -75 -76 -152 -110 -251 -110 -99 0 -176 34 -251 110 -45 46 -59 54 -90 54
-30 0 -43 -7 -64 -32z"/>
</g>
</svg>
