<?xml version="1.0" standalone="no"?>
<!DOCTYPE svg PUBLIC "-//W3C//DTD SVG 20010904//EN"
 "http://www.w3.org/TR/2001/REC-SVG-20010904/DTD/svg10.dtd">
<svg version="1.0" xmlns="http://www.w3.org/2000/svg"
 width="32.000000pt" height="32.000000pt" viewBox="0 0 32.000000 32.000000"
 preserveAspectRatio="xMidYMid meet">

<g transform="translate(0.000000,32.000000) scale(0.100000,-0.100000)"
fill="#000000" stroke="none">
<path d="M70 282 c-41 -41 -47 -89 -20 -142 21 -42 23 -77 5 -122 -5 -13 -2
-18 9 -18 20 0 36 31 36 69 0 17 5 31 11 31 7 0 9 -10 5 -25 -3 -14 -9 -36
-12 -50 -9 -39 23 -32 40 8 16 40 76 85 76 57 0 -5 -6 -10 -13 -10 -19 0 -57
-43 -57 -63 0 -23 22 -21 38 3 7 12 23 20 41 20 30 0 41 14 41 55 0 13 5 27
10 30 7 4 5 14 -5 28 -8 12 -15 37 -15 55 0 25 -9 43 -34 68 -29 29 -41 34
-81 34 -38 0 -52 -5 -75 -28z m78 -20 c4 -28 22 -29 29 -2 3 11 9 20 14 20 12
0 11 -7 -1 -30 -8 -16 -8 -18 5 -14 8 4 15 1 15 -4 0 -6 -8 -13 -17 -15 -10
-3 -3 -5 15 -6 17 0 32 -5 32 -10 0 -5 -21 -7 -47 -5 l-48 4 35 -14 c20 -8 27
-15 17 -15 -14 -1 -16 -5 -7 -20 13 -25 13 -31 0 -31 -5 0 -10 9 -10 20 0 11
-7 20 -15 20 -8 0 -15 -9 -15 -19 0 -33 -20 -34 -58 -4 -55 45 -53 94 8 136
30 21 44 18 48 -11z"/>
<path d="M120 265 c0 -8 -3 -14 -7 -14 -21 3 -33 -3 -33 -17 0 -8 -4 -12 -10
-9 -5 3 -10 1 -10 -4 0 -6 18 -11 40 -11 39 0 40 1 40 35 0 19 -4 35 -10 35
-5 0 -10 -7 -10 -15z m10 -29 c0 -2 -9 -6 -20 -9 -11 -3 -18 -1 -14 4 5 9 34
13 34 5z"/>
<path d="M67 193 c-11 -10 -8 -25 3 -18 6 3 10 -1 10 -9 0 -14 12 -20 33 -17
4 0 7 -6 7 -14 0 -8 5 -15 10 -15 6 0 10 15 10 34 0 26 -5 35 -22 40 -30 8
-43 7 -51 -1z m54 -31 c-7 -2 -18 1 -23 6 -8 8 -4 9 13 5 13 -4 18 -8 10 -11z"/>
</g>
</svg>
